
            <svg id="trend-chart" width="660" height="400" title="Stack Overflow Trends Chart" version="1.1" xmlns="http://www.w3.org/2000/svg"><g></g><g class="chart-area" transform="translate(100, 20)"><g transform="translate(0,300)" fill="none" font-size="10" font-family="sans-serif" text-anchor="middle"><path class="domain" stroke="#000" d="M0.5,6V0.5H410.5V6"></path><g class="tick" opacity="1" transform="translate(38.34574532105675,0)"><line stroke="#000" y2="6" x1="0.5" x2="0.5"></line><text fill="#000" y="9" x="0.5" dy="0.71em" style="font-size: 12px;">2010</text></g><g class="tick" opacity="1" transform="translate(92.38076969368718,0)"><line stroke="#000" y2="6" x1="0.5" x2="0.5"></line><text fill="#000" y="9" x="0.5" dy="0.71em" style="font-size: 12px;">2012</text></g><g class="tick" opacity="1" transform="translate(146.48981464765,0)"><line stroke="#000" y2="6" x1="0.5" x2="0.5"></line><text fill="#000" y="9" x="0.5" dy="0.71em" style="font-size: 12px;">2014</text></g><g class="tick" opacity="1" transform="translate(200.52483902028044,0)"><line stroke="#000" y2="6" x1="0.5" x2="0.5"></line><text fill="#000" y="9" x="0.5" dy="0.71em" style="font-size: 12px;">2016</text></g><g class="tick" opacity="1" transform="translate(254.63388397424325,0)"><line stroke="#000" y2="6" x1="0.5" x2="0.5"></line><text fill="#000" y="9" x="0.5" dy="0.71em" style="font-size: 12px;">2018</text></g><g class="tick" opacity="1" transform="translate(308.66890834687365,0)"><line stroke="#000" y2="6" x1="0.5" x2="0.5"></line><text fill="#000" y="9" x="0.5" dy="0.71em" style="font-size: 12px;">2020</text></g><g class="tick" opacity="1" transform="translate(362.7779533008365,0)"><line stroke="#000" y2="6" x1="0.5" x2="0.5"></line><text fill="#000" y="9" x="0.5" dy="0.71em" style="font-size: 12px;">2022</text></g></g><g class="grid-lines" transform="translate(0,300)" fill="none" font-size="10" font-family="sans-serif" text-anchor="middle"><path class="domain" stroke="#000" d="M0.5,-300V0.5H410.5V-300"></path><g class="tick" opacity="1" transform="translate(38.34574532105675,0)"><line stroke="#000" y2="-300" x1="0.5" x2="0.5" style="stroke: #ccc; fill: none;"></line></g><g class="tick" opacity="1" transform="translate(92.38076969368718,0)"><line stroke="#000" y2="-300" x1="0.5" x2="0.5" style="stroke: #ccc; fill: none;"></line></g><g class="tick" opacity="1" transform="translate(146.48981464765,0)"><line stroke="#000" y2="-300" x1="0.5" x2="0.5" style="stroke: #ccc; fill: none;"></line></g><g class="tick" opacity="1" transform="translate(200.52483902028044,0)"><line stroke="#000" y2="-300" x1="0.5" x2="0.5" style="stroke: #ccc; fill: none;"></line></g><g class="tick" opacity="1" transform="translate(254.63388397424325,0)"><line stroke="#000" y2="-300" x1="0.5" x2="0.5" style="stroke: #ccc; fill: none;"></line></g><g class="tick" opacity="1" transform="translate(308.66890834687365,0)"><line stroke="#000" y2="-300" x1="0.5" x2="0.5" style="stroke: #ccc; fill: none;"></line></g><g class="tick" opacity="1" transform="translate(362.7779533008365,0)"><line stroke="#000" y2="-300" x1="0.5" x2="0.5" style="stroke: #ccc; fill: none;"></line></g></g><text x="205" y="360" class="axis-label x-axis-label" style="text-anchor: middle; font-weight: bold;">Year</text><g fill="none" font-size="10" font-family="sans-serif" text-anchor="end"><path class="domain" stroke="#000" d="M-6,300.5H0.5V0.5H-6"></path><g class="tick" opacity="1" transform="translate(0,300)"><line stroke="#000" x2="-6" y1="0.5" y2="0.5"></line><text fill="#000" x="-9" y="0.5" dy="0.32em" style="font-size: 12px;">0.00%</text></g><g class="tick" opacity="1" transform="translate(0,280)"><line stroke="#000" x2="-6" y1="0.5" y2="0.5"></line><text fill="#000" x="-9" y="0.5" dy="0.32em" style="font-size: 12px;">0.02%</text></g><g class="tick" opacity="1" transform="translate(0,260)"><line stroke="#000" x2="-6" y1="0.5" y2="0.5"></line><text fill="#000" x="-9" y="0.5" dy="0.32em" style="font-size: 12px;">0.04%</text></g><g class="tick" opacity="1" transform="translate(0,240)"><line stroke="#000" x2="-6" y1="0.5" y2="0.5"></line><text fill="#000" x="-9" y="0.5" dy="0.32em" style="font-size: 12px;">0.06%</text></g><g class="tick" opacity="1" transform="translate(0,220)"><line stroke="#000" x2="-6" y1="0.5" y2="0.5"></line><text fill="#000" x="-9" y="0.5" dy="0.32em" style="font-size: 12px;">0.08%</text></g><g class="tick" opacity="1" transform="translate(0,200)"><line stroke="#000" x2="-6" y1="0.5" y2="0.5"></line><text fill="#000" x="-9" y="0.5" dy="0.32em" style="font-size: 12px;">0.10%</text></g><g class="tick" opacity="1" transform="translate(0,180)"><line stroke="#000" x2="-6" y1="0.5" y2="0.5"></line><text fill="#000" x="-9" y="0.5" dy="0.32em" style="font-size: 12px;">0.12%</text></g><g class="tick" opacity="1" transform="translate(0,160)"><line stroke="#000" x2="-6" y1="0.5" y2="0.5"></line><text fill="#000" x="-9" y="0.5" dy="0.32em" style="font-size: 12px;">0.14%</text></g><g class="tick" opacity="1" transform="translate(0,140)"><line stroke="#000" x2="-6" y1="0.5" y2="0.5"></line><text fill="#000" x="-9" y="0.5" dy="0.32em" style="font-size: 12px;">0.16%</text></g><g class="tick" opacity="1" transform="translate(0,120)"><line stroke="#000" x2="-6" y1="0.5" y2="0.5"></line><text fill="#000" x="-9" y="0.5" dy="0.32em" style="font-size: 12px;">0.18%</text></g><g class="tick" opacity="1" transform="translate(0,100)"><line stroke="#000" x2="-6" y1="0.5" y2="0.5"></line><text fill="#000" x="-9" y="0.5" dy="0.32em" style="font-size: 12px;">0.20%</text></g><g class="tick" opacity="1" transform="translate(0,79.99999999999997)"><line stroke="#000" x2="-6" y1="0.5" y2="0.5"></line><text fill="#000" x="-9" y="0.5" dy="0.32em" style="font-size: 12px;">0.22%</text></g><g class="tick" opacity="1" transform="translate(0,60.00000000000003)"><line stroke="#000" x2="-6" y1="0.5" y2="0.5"></line><text fill="#000" x="-9" y="0.5" dy="0.32em" style="font-size: 12px;">0.24%</text></g><g class="tick" opacity="1" transform="translate(0,40)"><line stroke="#000" x2="-6" y1="0.5" y2="0.5"></line><text fill="#000" x="-9" y="0.5" dy="0.32em" style="font-size: 12px;">0.26%</text></g><g class="tick" opacity="1" transform="translate(0,20)"><line stroke="#000" x2="-6" y1="0.5" y2="0.5"></line><text fill="#000" x="-9" y="0.5" dy="0.32em" style="font-size: 12px;">0.28%</text></g><g class="tick" opacity="1" transform="translate(0,0)"><line stroke="#000" x2="-6" y1="0.5" y2="0.5"></line><text fill="#000" x="-9" y="0.5" dy="0.32em" style="font-size: 12px;">0.30%</text></g></g><g class="grid-lines" fill="none" font-size="10" font-family="sans-serif" text-anchor="end"><path class="domain" stroke="#000" d="M410,300.5H0.5V0.5H410"></path><g class="tick" opacity="1" transform="translate(0,300)"><line stroke="#000" x2="410" y1="0.5" y2="0.5" style="stroke: #ccc; fill: none;"></line></g><g class="tick" opacity="1" transform="translate(0,280)"><line stroke="#000" x2="410" y1="0.5" y2="0.5" style="stroke: #ccc; fill: none;"></line></g><g class="tick" opacity="1" transform="translate(0,260)"><line stroke="#000" x2="410" y1="0.5" y2="0.5" style="stroke: #ccc; fill: none;"></line></g><g class="tick" opacity="1" transform="translate(0,240)"><line stroke="#000" x2="410" y1="0.5" y2="0.5" style="stroke: #ccc; fill: none;"></line></g><g class="tick" opacity="1" transform="translate(0,220)"><line stroke="#000" x2="410" y1="0.5" y2="0.5" style="stroke: #ccc; fill: none;"></line></g><g class="tick" opacity="1" transform="translate(0,200)"><line stroke="#000" x2="410" y1="0.5" y2="0.5" style="stroke: #ccc; fill: none;"></line></g><g class="tick" opacity="1" transform="translate(0,180)"><line stroke="#000" x2="410" y1="0.5" y2="0.5" style="stroke: #ccc; fill: none;"></line></g><g class="tick" opacity="1" transform="translate(0,160)"><line stroke="#000" x2="410" y1="0.5" y2="0.5" style="stroke: #ccc; fill: none;"></line></g><g class="tick" opacity="1" transform="translate(0,140)"><line stroke="#000" x2="410" y1="0.5" y2="0.5" style="stroke: #ccc; fill: none;"></line></g><g class="tick" opacity="1" transform="translate(0,120)"><line stroke="#000" x2="410" y1="0.5" y2="0.5" style="stroke: #ccc; fill: none;"></line></g><g class="tick" opacity="1" transform="translate(0,100)"><line stroke="#000" x2="410" y1="0.5" y2="0.5" style="stroke: #ccc; fill: none;"></line></g><g class="tick" opacity="1" transform="translate(0,79.99999999999997)"><line stroke="#000" x2="410" y1="0.5" y2="0.5" style="stroke: #ccc; fill: none;"></line></g><g class="tick" opacity="1" transform="translate(0,60.00000000000003)"><line stroke="#000" x2="410" y1="0.5" y2="0.5" style="stroke: #ccc; fill: none;"></line></g><g class="tick" opacity="1" transform="translate(0,40)"><line stroke="#000" x2="410" y1="0.5" y2="0.5" style="stroke: #ccc; fill: none;"></line></g><g class="tick" opacity="1" transform="translate(0,20)"><line stroke="#000" x2="410" y1="0.5" y2="0.5" style="stroke: #ccc; fill: none;"></line></g><g class="tick" opacity="1" transform="translate(0,0)"><line stroke="#000" x2="410" y1="0.5" y2="0.5" style="stroke: #ccc; fill: none;"></line></g></g><g class="lines"><path class="line" d="M2.2946380213034843,227.42579287400002L4.515255461274598,258.223088707L6.812977673466932,284.014067621L9.033595113438047,249.567117761L11.32823313474153,261.65154033L13.622871156045015,294.236975565L15.695447433351386,265.358539121L17.98700126376602,285.747541451L20.207618703737136,280.374455392L22.50225672504062,274.945416801L24.722874165011735,275.000781226L27.017512186315223,278.348953018L29.312150207618703,278.552607391L31.532767647589814,280.515504092L33.83048985978215,284.232517805L36.05110729975327,278.589589188L38.34574532105675,261.825204348L40.64038334236023,284.237784283L42.712959619666606,276.821447887L45.00451345008124,287.910050778L47.225130890052355,270.885658276L49.51976891135584,287.329170061L51.740386351326954,278.439339913L54.035024372630446,276.247783127L56.32966239393392,286.823033338L58.55027983390504,273.142487006L60.84800204609738,275.39904201L63.068619486068485,286.960868117L65.36325750737197,272.26809191899997L67.65789552867545,286.62776562199997L69.73047180598182,287.011300169L72.02202563639646,281.024067808L74.24264307636757,274.857441695L76.53728109767107,279.635060281L78.75789853764218,285.967163162L81.05253655894566,280.23380584L83.34717458024915,281.198543382L85.56779202022025,286.057443334L87.8655142324126,284.245985043L90.08613167238371,284.426708196L92.38076969368718,279.150921269L94.67540771499067,284.525797126L96.82200457362941,276.593704462L99.11355840404404,272.584927977L101.33417584401516,275.960274354L103.62881386531865,283.049672166L105.84943130528977,283.680883219L108.14406932659325,277.942536751L110.43870734789672,271.059305576L112.65932478786785,274.452235766L114.95704700006017,267.336273069L117.1776644400313,268.750930032L119.47230246133478,276.980772551L121.76694048263828,265.115743331L123.83951675994463,273.89715479L126.13107059035926,275.90658808L128.35168803033037,264.909521015L130.64632605163388,273.266457042L132.86694349160499,278.891278676L135.16158151290847,271.596624733L137.45621953421195,276.284440769L139.67683697418306,281.96583345199997L141.9745591863754,270.293522846L144.19517662634652,272.00584226L146.48981464765,272.274355912L148.7844526689535,273.199832767L150.85702894625987,279.625596073L153.1485827766745,276.652364078L155.3692002166456,277.669497106L157.66383823794908,270.200032284L159.8844556779202,278.94185676L162.1790936992237,269.15160751L164.47373172052718,275.105649197L166.6943491604983,273.756648316L168.99207137269062,270.349751907L171.21268881266172,275.331242981L173.5073268339652,262.32354353200003L175.8019648552687,263.447007149L177.87454113257508,272.344691511L180.16609496298972,274.480844685L182.38671240296082,269.605688079L184.6813504242643,269.97190228L186.90196786423542,275.771197625L189.1966058855389,264.454515666L191.49124390684239,269.390531472L193.71186134681352,269.718271779L196.00958355900585,265.510417551L198.23020099897695,274.871435251L200.52483902028044,258.796180295L202.81947704158392,261.989806844L204.96607390022265,264.47975346L207.2576277306373,268.7166653L209.4782451706084,274.960576227L211.77288319191192,266.594379094L213.993500631883,278.312482879L216.2881386531865,268.888716049L218.58277667449,259.961138753L220.80339411446107,262.542931564L223.10111632665343,267.714597038L225.32173376662456,271.365789589L227.61637178792802,266.845775695L229.91100980923153,259.625090123L231.98358608653788,262.910986368L234.27513991695253,266.631412849L236.4957573569236,264.808368029L238.79039537822712,260.31813518L241.01101281819822,274.142631494L243.30565083950174,270.954734948L245.6002888608052,260.72808876700003L247.82090630077633,264.959376634L250.11862851296863,256.945781584L252.33924595293976,273.577165108L254.63388397424325,257.764946167L256.92852199554676,266.979917186L259.0010982728531,269.009472577L261.29265210326776,265.164597278L263.5132695432389,257.152512915L265.80790756454235,256.731525673L268.0285250045134,270.199221376L270.32316302581694,268.635383129L272.6178010471204,262.774624937L274.83841848709153,246.916747767L277.1361406992838,262.057307018L279.35675813925496,257.038741849L281.6513961605585,257.21881557300003L283.94603418186193,250.801383105L286.0186104591683,256.52557430400003L288.31016428958293,270.903704488L290.53078172955406,257.078091049L292.8254197508576,262.652006335L295.04603719082866,259.024101889L297.34067521213217,255.58253505300002L299.6353132334356,251.776480277L301.85593067340676,252.166778499L304.1536528855991,254.225905405L306.3742703255702,259.489413744L308.66890834687365,254.439082983L310.96354636817716,253.94374158300002L313.1101432268159,257.852145326L315.40169705723054,252.971639133L317.62231449720167,252.281797675L319.9169525185051,239.934281037L322.13756995847626,237.838990798L324.4322079797798,239.993590225L326.72684600108323,238.552555428L328.94746344105437,240.066355107L331.24518565324666,252.79979621500001L333.4658030932178,238.117410893L335.76044111452126,237.101007107L338.05507913582477,237.75837956700002L340.1276554131311,234.03918208599998L342.41920924354577,254.607353609L344.6398266835169,244.858634156L346.93446470482036,256.848869049L349.1550821447915,247.025264874L351.44972016609495,242.02226345100001L353.7443581873984,239.256909527L355.96497562736954,253.302371391L358.2626978395619,249.161589887L360.483315279533,248.723484645L362.7779533008365,245.893850498L365.07259132214,244.133582811L367.1451675994463,241.24367553500002L369.436721429861,250.644268566L371.65733886983213,248.823371239L373.9519768911356,249.35793091L376.1725943311067,256.3660164L378.4672323524102,234.892349406L380.76187037371363,237.839334104L382.98248781368477,244.091197681L385.2802100258771,241.511223522L387.5008274658482,222.794827254L389.7954654871517,234.912893165L392.0901035084552,208.192421191L394.1626797857616,237.871980264L396.45423361617617,228.893102631L398.6748510561473,230.17816205699998L400.9694890774508,206.819144431L403.19010651742195,231.76009330300002L405.4847445387254,222.103213243L407.7793825600289,214.00400326200003L410,218.722314789" data-legend="markdown" style="stroke: rgb(31, 119, 180); fill: none;"></path><path class="line" d="M2.2946380213034843,300L4.515255461274598,300L6.812977673466932,300L9.033595113438047,300L11.32823313474153,300L13.622871156045015,300L15.695447433351386,300L17.98700126376602,300L20.207618703737136,300L22.50225672504062,300L24.722874165011735,300L27.017512186315223,300L29.312150207618703,300L31.532767647589814,300L33.83048985978215,300L36.05110729975327,300L38.34574532105675,300L40.64038334236023,300L42.712959619666606,300L45.00451345008124,300L47.225130890052355,300L49.51976891135584,300L51.740386351326954,300L54.035024372630446,300L56.32966239393392,300L58.55027983390504,300L60.84800204609738,300L63.068619486068485,300L65.36325750737197,300L67.65789552867545,300L69.73047180598182,300L72.02202563639646,300L74.24264307636757,300L76.53728109767107,300L78.75789853764218,300L81.05253655894566,300L83.34717458024915,300L85.56779202022025,300L87.8655142324126,300L90.08613167238371,300L92.38076969368718,300L94.67540771499067,300L96.82200457362941,300L99.11355840404404,300L101.33417584401516,299.248758574L103.62881386531865,297.688591659L105.84943130528977,300L108.14406932659325,298.576937855L110.43870734789672,298.476805557L112.65932478786785,297.983071245L114.95704700006017,299.319505689L117.1776644400313,297.023898099L119.47230246133478,297.442308062L121.76694048263828,294.734451824L123.83951675994463,296.519620639L126.13107059035926,297.061779035L128.35168803033037,299.394991742L130.64632605163388,295.544409507L132.86694349160499,294.865446165L135.16158151290847,296.449578092L137.45621953421195,295.743361164L139.67683697418306,294.535101046L141.9745591863754,295.429772746L144.19517662634652,296.348588121L146.48981464765,294.134959905L148.7844526689535,295.175969899L150.85702894625987,295.634056302L153.1485827766745,294.811636462L155.3692002166456,290.838768044L157.66383823794908,286.962514124L159.8844556779202,284.633246825L162.1790936992237,277.789157408L164.47373172052718,277.534366348L166.6943491604983,283.087617804L168.99207137269062,286.082536609L171.21268881266172,283.770554593L173.5073268339652,269.008076131L175.8019648552687,280.225430097L177.87454113257508,276.599354355L180.16609496298972,277.670739099L182.38671240296082,271.233954789L184.6813504242643,275.334062588L186.90196786423542,274.740184758L189.1966058855389,279.450266869L191.49124390684239,256.353165246L193.71186134681352,267.555291192L196.00958355900585,271.729850451L198.23020099897695,266.105656849L200.52483902028044,267.14830591099997L202.81947704158392,264.66658101L204.96607390022265,271.984030898L207.2576277306373,263.588249775L209.4782451706084,271.231300346L211.77288319191192,266.594379094L213.993500631883,270.893069127L216.2881386531865,263.333129629L218.58277667449,246.418582743L220.80339411446107,246.983841597L223.10111632665343,249.265795346L225.32173376662456,258.916132888L227.61637178792802,262.272779239L229.91100980923153,242.321557318L231.98358608653788,253.889334403L234.27513991695253,254.7544581L236.4957573569236,243.151979124L238.79039537822712,249.5473433L241.01101281819822,246.598912867L243.30565083950174,243.618014899L245.6002888608052,232.676723601L247.82090630077633,244.172566162L250.11862851296863,237.212598143L252.33924595293976,225.59885964699998L254.63388397424325,245.15746741L256.92852199554676,235.280637684L259.0010982728531,233.925856625L261.29265210326776,234.061559134L263.5132695432389,233.61656930499998L265.80790756454235,247.55336445199998L268.0285250045134,239.764383632L270.32316302581694,242.39152003200002L272.6178010471204,227.65634657599998L274.83841848709153,233.645934708L277.1361406992838,236.31047963700001L279.35675813925496,247.83275796L281.6513961605585,228.018959535L283.94603418186193,217.540346331L286.0186104591683,233.213201104L288.31016428958293,225.93670233199998L290.53078172955406,226.227968989L292.8254197508576,242.484089755L295.04603719082866,241.55896499L297.34067521213217,214.126234436L299.6353132334356,213.939564802L301.85593067340676,216.956212672L304.1536528855991,228.26447862L306.3742703255702,241.14499732500002L308.66890834687365,218.54260290899998L310.96354636817716,212.772237846L313.1101432268159,218.946433319L315.40169705723054,210.369476934L317.62231449720167,225.169182718L319.9169525185051,212.845819544L322.13756995847626,217.72807605600002L324.4322079797798,233.174680023L326.72684600108323,201.398286617L328.94746344105437,197.97010452799998L331.24518565324666,193.61223908799997L333.4658030932178,224.53342791900002L335.76044111452126,213.24276842400002L338.05507913582477,175.516759133L340.1276554131311,200.038760481L342.41920924354577,197.30843931200002L344.6398266835169,176.876128321L346.93446470482036,210.559474027L349.1550821447915,226.650366749L351.44972016609495,238.709249934L353.7443581873984,219.852866737L355.96497562736954,205.755694989L358.2626978395619,196.628566103L360.483315279533,201.94490923200001L362.7779533008365,197.705561098L365.07259132214,210.436378793L367.1451675994463,211.04945324L369.436721429861,201.288537132L371.65733886983213,204.58594637800002L373.9519768911356,214.993669742L376.1725943311067,215.459156774L378.4672323524102,160.865842565L380.76187037371363,190.247574278L382.98248781368477,222.296240844L385.2802100258771,216.21877964L387.5008274658482,200.136787426L389.7954654871517,181.659805754L392.0901035084552,203.50836104799998L394.1626797857616,190.150457857L396.45423361617617,182.617185296L398.6748510561473,202.24942688000002L400.9694890774508,199.558298542L403.19010651742195,209.427032929L405.4847445387254,198.734177216L407.7793825600289,202.14248647099998L410,218.722314789" data-legend="r-markdown" style="stroke: rgb(255, 127, 14); fill: none;"></path><path class="line" d="M2.2946380213034843,256.455475724L4.515255461274598,237.33463306000002L6.812977673466932,252.042202862L9.033595113438047,215.94519626800002L11.32823313474153,165.780391155L13.622871156045015,115.58321807300001L15.695447433351386,171.33171673200002L17.98700126376602,128.970497411L20.207618703737136,221.49782156499998L22.50225672504062,210.519345718L24.722874165011735,200.003124903L27.017512186315223,167.000711392L29.312150207618703,143.740425272L31.532767647589814,188.660023382L33.83048985978215,186.99971093L36.05110729975327,136.745617557L38.34574532105675,131.581783886L40.64038334236023,160.39180364799998L42.712959619666606,122.29776713300004L45.00451345008124,40.066091723L47.225130890052355,51.55761728300001L49.51976891135584,104.50719522200004L51.740386351326954,112.58810846699998L54.035024372630446,185.98935900700002L56.32966239393392,174.81881670900003L58.55027983390504,181.510972084L60.84800204609738,211.72597427099998L63.068619486068485,243.497095172L65.36325750737197,240.754560009L67.65789552867545,242.864089473L69.73047180598182,254.039985213L72.02202563639646,263.10235407L74.24264307636757,259.771906712L76.53728109767107,265.379602477L78.75789853764218,273.939017301L81.05253655894566,269.880085089L83.34717458024915,276.250791641L85.56779202022025,280.082061905L87.8655142324126,276.832330946L90.08613167238371,275.666731556L92.38076969368718,273.069939973L94.67540771499067,270.68045771100003L96.82200457362941,272.063453713L99.11355840404404,281.984381242L101.33417584401516,287.228895751L103.62881386531865,282.279202719L105.84943130528977,273.747507788L108.14406932659325,277.942536751L110.43870734789672,278.675277793L112.65932478786785,279.830712447L114.95704700006017,275.502204802L117.1776644400313,270.23898098300003L119.47230246133478,275.062503597L121.76694048263828,267.090323898L123.83951675994463,277.957597379L126.13107059035926,278.844809046L128.35168803033037,273.984644891L130.64632605163388,275.175995825L132.86694349160499,284.596338493L135.16158151290847,276.922257595L137.45621953421195,277.500623294L139.67683697418306,271.036035544L141.9745591863754,268.579687625L144.19517662634652,268.962999027L146.48981464765,272.274355912L148.7844526689535,276.415852835L150.85702894625987,275.259652374L153.1485827766745,274.058182309L155.3692002166456,271.371150136L157.66383823794908,262.750040355L159.8844556779202,265.282520603L162.1790936992237,272.853414609L164.47373172052718,262.354884151L166.6943491604983,269.091163572L168.99207137269062,255.82718141200002L171.21268881266172,261.04933102300004L173.5073268339652,265.969652222L175.8019648552687,258.05394263L177.87454113257508,260.112535833L180.16609496298972,258.531372612L182.38671240296082,257.122309968L184.6813504242643,269.97190228L186.90196786423542,269.069613989L189.1966058855389,258.345135545L191.49124390684239,265.989479413L193.71186134681352,264.310820311L196.00958355900585,250.809939785L198.23020099897695,258.508648902L200.52483902028044,266.591497537L202.81947704158392,266.808000343L204.96607390022265,267.481464435L207.2576277306373,258.45983425L209.4782451706084,255.248689426L211.77288319191192,264.951479705L213.993500631883,264.615103644L216.2881386531865,271.110950617L218.58277667449,269.970854065L220.80339411446107,272.339395616L223.10111632665343,274.632897673L225.32173376662456,267.008409744L227.61637178792802,266.845775695L229.91100980923153,270.007209806L231.98358608653788,262.409783481L234.27513991695253,262.106858659L236.4957573569236,265.349777752L238.79039537822712,267.120740577L241.01101281819822,265.148764187L243.30565083950174,260.70346493L245.6002888608052,263.221543449L247.82090630077633,267.33501211600003L250.11862851296863,258.141732096L252.33924595293976,252.71703229899998L254.63388397424325,262.807937669L256.92852199554676,257.734293998L259.0010982728531,257.314933926L261.29265210326776,251.479260495L263.5132695432389,254.135084247L265.80790756454235,257.38710861699997L268.0285250045134,254.347743384L270.32316302581694,260.954252466L272.6178010471204,251.536775862L274.83841848709153,257.659786909L277.1361406992838,262.734855107L279.35675813925496,260.87456847L281.6513961605585,260.61414767L283.94603418186193,255.651950968L286.0186104591683,256.52557430400003L288.31016428958293,250.40404174000003L290.53078172955406,250.371542775L292.8254197508576,256.676327348L295.04603719082866,248.94806137L297.34067521213217,243.737877734L299.6353132334356,238.422274815L301.85593067340676,253.495479097L304.1536528855991,254.225905405L306.3742703255702,274.776427425L308.66890834687365,259.961618379L310.96354636817716,258.130674166L313.1101432268159,252.664717059L315.40169705723054,243.012692125L317.62231449720167,239.267742496L319.9169525185051,239.34540144L322.13756995847626,251.246267293L324.4322079797798,252.267628588L326.72684600108323,237.838050259L328.94746344105437,245.060825515L331.24518565324666,240.812442873L333.4658030932178,233.589416568L335.76044111452126,232.76314552899998L338.05507913582477,220.853248091L340.1276554131311,234.719190518L342.41920924354577,230.794817797L344.6398266835169,210.867381239L346.93446470482036,234.88102056399998L349.1550821447915,243.765281174L351.44972016609495,235.396236417L353.7443581873984,223.22748287399997L355.96497562736954,207.45379057399998L358.2626978395619,212.72739597199998L360.483315279533,221.735844983L362.7779533008365,223.913227263L365.07259132214,219.30406406100002L367.1451675994463,218.393993798L369.436721429861,218.034231726L371.65733886983213,217.59695369000002L373.9519768911356,223.132573703L376.1725943311067,220.913404724L378.4672323524102,219.730293788L380.76187037371363,226.184209249L382.98248781368477,208.08213856L385.2802100258771,230.445779324L387.5008274658482,237.061000479L389.7954654871517,221.388299536L392.0901035084552,225.991849736L394.1626797857616,210.859797769L396.45423361617617,224.378378989L398.6748510561473,213.88639987L400.9694890774508,235.86252798499999L403.19010651742195,239.20444676099999L405.4847445387254,225.99805258100002L407.7793825600289,227.34820965300003L410,210.59454626800002" data-legend="latex" style="stroke: rgb(44, 160, 44); fill: none;"></path></g></g><g transform="translate(20, 150)"><text transform="rotate(-90)" x="-50" y="0" dy="1em" class="axis-label y-axis-label" style="text-anchor: middle; font-weight: bold;">% of Stack Overflow questions that month</text></g><g class="legend" transform="translate(530, 30)" style="font-size: 12px;"><text class="legend-title" style="font-weight: bold;">Tag</text><g class="legend-items" transform="translate(0,20)"><text y="0em" x="1em">latex</text><text y="1em" x="1em">r-markdown</text><text y="2em" x="1em">markdown</text><circle cy="-0.25em" cx="0" r="0.4em" style="fill: rgb(44, 160, 44);"></circle><circle cy="0.75em" cx="0" r="0.4em" style="fill: rgb(255, 127, 14);"></circle><circle cy="1.75em" cx="0" r="0.4em" style="fill: rgb(31, 119, 180);"></circle></g><rect class="legend-box"></rect></g></svg>
        